<svg width="1069" height="686" viewBox="0 0 1069 686" fill="none" xmlns="http://www.w3.org/2000/svg">
<path d="M900.725 25.0757C914.767 30.9271 928.029 37.9489 940.901 46.141C1027.11 99.9747 1081.72 204.911 1065.72 305.167C1049.34 406.983 941.681 551.709 835.193 572.775C800.478 579.796 764.981 570.044 731.046 559.511C674.096 541.957 620.657 513.48 564.487 497.095C542.644 490.854 518.85 489.293 497.786 497.876C461.12 512.699 452.148 544.688 436.546 577.066C418.993 613.735 389.348 644.553 353.462 663.668C279.739 702.678 184.563 684.343 116.301 642.212C14.8841 579.796 -21.3919 456.915 12.1537 345.347C20.7352 316.48 34.3875 288.002 57.0114 267.717C95.6279 232.608 153.748 226.367 204.456 239.24C239.562 248.212 271.548 265.377 301.973 284.101C326.937 299.705 349.951 321.161 380.766 321.161C443.177 321.551 462.29 241.191 482.183 196.329C508.318 137.034 552.395 85.1509 607.005 50.4321C695.16 -6.13226 804.768 -15.8847 900.725 25.0757Z" fill="url(#paint0_linear_101_581)"/>
<path d="M900.757 25.3127C914.793 31.163 928.049 38.1834 940.915 46.3738C1027.08 100.197 1081.66 205.112 1065.68 305.347C1049.3 407.142 941.695 551.839 835.256 572.9C800.557 579.921 765.077 570.17 731.157 559.64C674.234 542.089 620.82 513.617 564.677 497.236C542.843 490.996 519.06 489.436 498.007 498.016C461.357 512.837 452.39 544.819 436.795 577.19C419.25 613.852 389.619 644.664 353.749 663.775C280.061 702.777 184.93 684.446 116.7 642.324C15.3299 579.921 -20.9292 457.064 12.6008 345.519C21.1783 316.657 34.8242 288.186 57.4375 267.905C96.036 232.803 154.129 226.563 204.814 239.433C239.903 248.404 271.874 265.565 302.285 284.286C327.237 299.887 350.24 321.338 381.041 321.338C443.423 321.728 462.527 241.384 482.411 196.531C508.533 137.248 552.59 85.3758 607.174 50.664C695.288 -5.88883 804.845 -15.6393 900.757 25.3127Z" fill="url(#paint1_radial_101_581)"/>
<defs>
<linearGradient id="paint0_linear_101_581" x1="-59.6989" y1="698.488" x2="1418.18" y2="-108.586" gradientUnits="userSpaceOnUse">
<stop stop-color="#FF9370"/>
<stop offset="1" stop-color="#FFDF00"/>
</linearGradient>
<radialGradient id="paint1_radial_101_581" cx="0" cy="0" r="1" gradientUnits="userSpaceOnUse" gradientTransform="translate(539.217 -105.828) rotate(79.7207) scale(1206.28 1124.64)">
<stop stop-color="#FEBB40"/>
<stop offset="0.5576" stop-color="#EC4C76"/>
<stop offset="0.9726" stop-color="#D60B52"/>
</radialGradient>
</defs>
</svg>
