<svg width="1092" height="827" fill="none" xmlns="http://www.w3.org/2000/svg"><path d="M91.774 758.993c-176.31-133.023-73.332-425.988 96.347-515.711 63.581-33.548 137.693-46.421 209.075-37.059 64.361 8.582 144.715 30.428 210.636 5.461 49.929-19.114 72.942-66.316 99.077-109.227 72.552-119.37 255.493-141.606 346.381-28.478 33.54 41.741 47.2 99.866 30.81 150.969-38.61 118.59-168.116 67.877-241.448 131.463-29.255 25.357-37.056 76.069-54.219 110.008-17.553 34.719-39.007 67.877-62.021 99.475-48.368 66.707-107.268 127.563-175.14 174.765-135.353 94.404-304.641 122.491-447.796 26.916-3.9-2.73-7.801-5.461-11.702-8.582Z" fill="url(#a)"/><path d="M91.774 758.993c-176.31-133.023-73.332-425.988 96.347-515.711 63.581-33.548 137.693-46.421 209.075-37.059 64.361 8.582 144.715 30.428 210.636 5.461 49.929-19.114 72.942-66.316 99.077-109.227 72.552-119.37 255.493-141.606 346.381-28.478 33.54 41.741 47.2 99.866 30.81 150.969-38.61 118.59-168.116 67.877-241.448 131.463-29.255 25.357-37.056 76.069-54.219 110.008-17.553 34.719-39.007 67.877-62.021 99.475-48.368 66.707-107.268 127.563-175.14 174.765-135.353 94.404-304.641 122.491-447.796 26.916-3.9-2.73-7.801-5.461-11.702-8.582Z" fill="url(#b)"/><defs><radialGradient id="b" cx="0" cy="0" r="1" gradientUnits="userSpaceOnUse" gradientTransform="rotate(-122.48 414.86 -184.811) scale(1284.19 2158.72)"><stop stop-color="#FEBB40"/><stop offset=".558" stop-color="#EC4C76"/><stop offset=".973" stop-color="#D60B52"/></radialGradient><linearGradient id="a" x1="1070.12" y1="-496.252" x2="121.946" y2="1020.26" gradientUnits="userSpaceOnUse"><stop stop-color="#FFDF00"/><stop offset="1" stop-color="#FF9370"/></linearGradient></defs></svg>