<svg
  aria-hidden="true"
  style="position: absolute; width: 0; height: 0; overflow: hidden;"
  version="1.1"
  xmlns="http://www.w3.org/2000/svg"
  xmlns:xlink="http://www.w3.org/1999/xlink"
>
<defs>
<symbol id="icon-menu" viewBox="0 0 32 32">
<path d="M0 18.3333C0 19.2538 0.746192 20 1.66667 20H28.3333C29.2538 20 30 19.2538 30 18.3333C30 17.4129 29.2538 16.6667 28.3333 16.6667H1.66667C0.746193 16.6667 0 17.4129 0 18.3333ZM0 10C0 10.9205 0.746192 11.6667 1.66667 11.6667H28.3333C29.2538 11.6667 30 10.9205 30 10C30 9.07952 29.2538 8.33333 28.3333 8.33333H1.66667C0.746193 8.33333 0 9.07952 0 10ZM1.66667 0C0.746193 0 0 0.746192 0 1.66667C0 2.58714 0.746192 3.33333 1.66667 3.33333H28.3333C29.2538 3.33333 30 2.58714 30 1.66667C30 0.746192 29.2538 0 28.3333 0H1.66667Z" fill="#111111"/>
</symbol>
<symbol id="icon-close" viewBox="0 0 32 32">
<path d="M30 10L10 30" stroke="#212121" stroke-width="4" stroke-linecap="round" stroke-linejoin="round"/>
<path d="M10 10L30 30" stroke="#212121" stroke-width="4" stroke-linecap="round" stroke-linejoin="round"/>
</symbol>
<symbol id="icon-avatar" viewBox="0 0 32 32">
<path d="M9.00002 0.666992C4.40002 0.666992 0.666687 4.40033 0.666687 9.00033C0.666687 13.6003 4.40002 17.3337 9.00002 17.3337C13.6 17.3337 17.3334 13.6003 17.3334 9.00033C17.3334 4.40033 13.6 0.666992 9.00002 0.666992ZM9.00002 4.00033C10.6084 4.00033 11.9167 5.30866 11.9167 6.91699C11.9167 8.52533 10.6084 9.83366 9.00002 9.83366C7.39169 9.83366 6.08335 8.52533 6.08335 6.91699C6.08335 5.30866 7.39169 4.00033 9.00002 4.00033ZM9.00002 15.667C7.30835 15.667 5.30835 14.9837 3.88335 13.267C5.34302 12.1218 7.1447 11.4993 9.00002 11.4993C10.8553 11.4993 12.657 12.1218 14.1167 13.267C12.6917 14.9837 10.6917 15.667 9.00002 15.667Z" fill="white"/>
</symbol>
</defs>
</svg>