<svg
  aria-hidden="true"
  style="position: absolute; width: 0; height: 0; overflow: hidden;"
  version="1.1"
  xmlns="http://www.w3.org/2000/svg"
  xmlns:xlink="http://www.w3.org/1999/xlink"
>
<defs>
<symbol id="icon-menu" viewBox="0 0 32 32">
<path d="M0 18.3333C0 19.2538 0.746192 20 1.66667 20H28.3333C29.2538 20 30 19.2538 30 18.3333C30 17.4129 29.2538 16.6667 28.3333 16.6667H1.66667C0.746193 16.6667 0 17.4129 0 18.3333ZM0 10C0 10.9205 0.746192 11.6667 1.66667 11.6667H28.3333C29.2538 11.6667 30 10.9205 30 10C30 9.07952 29.2538 8.33333 28.3333 8.33333H1.66667C0.746193 8.33333 0 9.07952 0 10ZM1.66667 0C0.746193 0 0 0.746192 0 1.66667C0 2.58714 0.746192 3.33333 1.66667 3.33333H28.3333C29.2538 3.33333 30 2.58714 30 1.66667C30 0.746192 29.2538 0 28.3333 0H1.66667Z" fill="#111111"/>
</symbol>
<symbol id="icon-close" viewBox="0 0 32 32">
<path d="M30 10L10 30" stroke="#212121" stroke-width="4" stroke-linecap="round" stroke-linejoin="round"/>
<path d="M10 10L30 30" stroke="#212121" stroke-width="4" stroke-linecap="round" stroke-linejoin="round"/>
</symbol>



<symbol id="male-icon" viewBox="0 0 54 54" fill="none" xmlns="http://www.w3.org/2000/svg">
  <g filter="url(#a)">
    <path d="M34.773 0a2 2 0 0 0-2 2v3.519a2 2 0 0 0 2 2h6.258L30.147 18.263a19.539 19.539 0 0 0-10.603-3.104C8.75 15.159 0 23.853 0 34.579 0 45.304 8.75 54 19.544 54c10.793 0 19.541-8.696 19.541-19.421 0-4.077-1.263-7.86-3.423-10.984L46.363 12.96v6.134a2 2 0 0 0 2 2h3.566c1.105 0 2-.895 2.002-2 .01-5.473.058-11.633.067-17.095C54 .895 53.105 0 52 0H34.773Zm-15.23 22.976c6.45 0 11.676 5.194 11.676 11.603 0 6.408-5.227 11.604-11.675 11.604-6.45 0-11.678-5.196-11.678-11.604 0-6.409 5.229-11.603 11.678-11.603Z" fill="#23C2EF"/>
  </g>
  <defs>
    <filter id="a" x="-1" y="-3" width="54.998" height="59" filterUnits="userSpaceOnUse" color-interpolation-filters="sRGB">
      <feFlood flood-opacity="0" result="BackgroundImageFix"/>
      <feBlend in="SourceGraphic" in2="BackgroundImageFix" result="shape"/>
      <feColorMatrix in="SourceAlpha" values="0 0 0 0 0 0 0 0 0 0 0 0 0 0 0 0 0 0 127 0" result="hardAlpha"/>
      <feOffset dy="-3"/>
      <feGaussianBlur stdDeviation="2"/>
      <feComposite in2="hardAlpha" operator="arithmetic" k2="-1" k3="1"/>
      <feColorMatrix values="0 0 0 0 0 0 0 0 0 0 0 0 0 0 0 0 0 0 0.25 0"/>
      <feBlend in2="shape" result="effect1_innerShadow_200_964"/>
      <feColorMatrix in="SourceAlpha" values="0 0 0 0 0 0 0 0 0 0 0 0 0 0 0 0 0 0 127 0" result="hardAlpha"/>
      <feOffset dx="-1" dy="2"/>
      <feGaussianBlur stdDeviation="1.5"/>
      <feComposite in2="hardAlpha" operator="arithmetic" k2="-1" k3="1"/>
      <feColorMatrix values="0 0 0 0 1 0 0 0 0 1 0 0 0 0 1 0 0 0 0.57 0"/>
      <feBlend in2="effect1_innerShadow_200_964" result="effect2_innerShadow_200_964"/>
    </filter>
  </defs>
</symbol>
<symbol id="femaile-icon" viewBox="0 0 40 60" fill="none" xmlns="http://www.w3.org/2000/svg">
  <path d="M20 0C9.357 0 .727 8.63.727 19.273c0 8.813 5.919 16.246 13.997 18.542.922.262 1.606 1.075 1.606 2.033v2.553a2 2 0 0 1-2 2h-4.266a2 2 0 0 0-2 2v3.337a2 2 0 0 0 2 2h4.266a2 2 0 0 1 2 2V58a2 2 0 0 0 2 2h3.337a2 2 0 0 0 2-2v-4.262a2 2 0 0 1 2-2h4.265a2 2 0 0 0 2-2v-3.337a2 2 0 0 0-2-2h-4.265a2 2 0 0 1-2-2v-4.204c8.889-1.713 15.606-9.535 15.606-18.924C39.273 8.63 30.643 0 20 0Zm0 7.664c6.412 0 11.61 5.197 11.61 11.61 0 6.41-5.198 11.608-11.61 11.608-6.412 0-11.61-5.197-11.61-11.609S13.589 7.663 20 7.663Z" fill="#FF8787"/>
</symbol>
<symbol id="button-load-pets-image" viewBox="0 0 51 51" fill="none" xmlns="http://www.w3.org/2000/svg">
  <path d="M25.5 49.166V25.5m0 0V1.833m0 23.667h23.667m-23.667 0H1.833" stroke="#111" stroke-opacity=".6" stroke-width="2" stroke-linecap="round"/>
</symbol>
<symbol id="male-icon-mobile" viewBox="0 0 36 36" fill="none" xmlns="http://www.w3.org/2000/svg">
  <g filter="url(#a)">
    <path d="M23.849 0a2 2 0 0 0-2 2v1.012a2 2 0 0 0 2 2h3.505l-7.256 7.163a13.026 13.026 0 0 0-7.069-2.069C5.834 10.106 0 15.902 0 23.052 0 30.202 5.834 36 13.029 36s13.028-5.797 13.028-12.948c0-2.718-.842-5.24-2.282-7.322l7.134-7.09v3.422a2 2 0 0 0 2 2h1.044c1.104 0 2-.895 2.003-2 .008-3.252.033-6.815.041-10.063C36 .895 35.105 0 34 0H23.85Zm-10.82 15.317c4.3 0 7.784 3.463 7.784 7.735 0 4.273-3.485 7.737-7.784 7.737-4.3 0-7.785-3.464-7.785-7.737 0-4.272 3.486-7.735 7.785-7.735Z" fill="#23C2EF"/>
  </g>
  <defs>
    <filter id="a" x="-1" y="-3" width="36.997" height="41" filterUnits="userSpaceOnUse" color-interpolation-filters="sRGB">
      <feFlood flood-opacity="0" result="BackgroundImageFix"/>
      <feBlend in="SourceGraphic" in2="BackgroundImageFix" result="shape"/>
      <feColorMatrix in="SourceAlpha" values="0 0 0 0 0 0 0 0 0 0 0 0 0 0 0 0 0 0 127 0" result="hardAlpha"/>
      <feOffset dy="-3"/>
      <feGaussianBlur stdDeviation="2"/>
      <feComposite in2="hardAlpha" operator="arithmetic" k2="-1" k3="1"/>
      <feColorMatrix values="0 0 0 0 0 0 0 0 0 0 0 0 0 0 0 0 0 0 0.25 0"/>
      <feBlend in2="shape" result="effect1_innerShadow_2418_892"/>
      <feColorMatrix in="SourceAlpha" values="0 0 0 0 0 0 0 0 0 0 0 0 0 0 0 0 0 0 127 0" result="hardAlpha"/>
      <feOffset dx="-1" dy="2"/>
      <feGaussianBlur stdDeviation="1.5"/>
      <feComposite in2="hardAlpha" operator="arithmetic" k2="-1" k3="1"/>
      <feColorMatrix values="0 0 0 0 1 0 0 0 0 1 0 0 0 0 1 0 0 0 0.57 0"/>
      <feBlend in2="effect1_innerShadow_2418_892" result="effect2_innerShadow_2418_892"/>
    </filter>
  </defs>
</symbol>
<symbol id="female-icon-mobile" viewBox="0 0 26 40" fill="none" xmlns="http://www.w3.org/2000/svg">
  <path d="M13 0C5.905 0 .151 5.753.151 12.849c0 5.682 3.691 10.504 8.806 12.199.91.302 1.596 1.11 1.596 2.068v.485a2 2 0 0 1-2 2h-1.51a2 2 0 0 0-2 2v.891a2 2 0 0 0 2 2h1.51a2 2 0 0 1 2 2V38a2 2 0 0 0 2 2h.891a2 2 0 0 0 2-2v-1.508a2 2 0 0 1 2-2h1.51a2 2 0 0 0 2-2v-.891a2 2 0 0 0-2-2h-1.51a2 2 0 0 1-2-2v-2.136c5.926-1.143 10.405-6.357 10.405-12.616C25.849 5.753 20.095 0 13 0Zm0 5.11a7.74 7.74 0 1 1 0 15.478A7.74 7.74 0 0 1 13 5.11Z" fill="#FF8787"/>
</symbol>
<symbol id="closeModal-button-mobile" viewBox="0 0 40 40" fill="none" xmlns="http://www.w3.org/2000/svg">
  <path d="M30 10 10 30M10 10l20 20" stroke="#212121" stroke-width="4" stroke-linecap="round" stroke-linejoin="round"/>
</symbol>
<symbol id="closeModal-button" viewBox="0 0 21 22" fill="none" xmlns="http://www.w3.org/2000/svg">
  <path d="m12.41 11 8.29-8.29a1 1 0 0 0-1.41-1.41L11 9.59l-8.29-8.3a1.004 1.004 0 1 0-1.42 1.42L9.59 11l-8.3 8.29A1 1 0 1 0 2.7 20.7l8.3-8.29 8.29 8.29a1 1 0 0 0 1.41-1.41L12.41 11Z" fill="#000"/>
</symbol>
<symbol id="logOut-desc" viewBox="0 0 18 18" fill="none" xmlns="http://www.w3.org/2000/svg">
  <path d="M15.204 11.146v-.001Zm.42.42Zm0-5.061Z" fill="#F59256" stroke="#F59256" stroke-width="2"/>
</symbol>
<symbol id="edit-pen-desk" viewBox="0 0 17 17" fill="none" xmlns="http://www.w3.org/2000/svg">
  <path d="M1.683 16.149a.833.833 0 0 1-.614-.272.824.824 0 0 1-.219-.636l.204-2.245 9.432-9.429 2.947 2.947-9.429 9.428-2.245.204a.8.8 0 0 1-.076.003ZM14.022 5.925l-2.947-2.947 1.768-1.767a.833.833 0 0 1 1.179 0l1.767 1.767a.834.834 0 0 1 0 1.18l-1.766 1.766h-.001Z" fill="#F59256"/>
</symbol>
<symbol id="edit-button-desk" viewBox="0 0 18 19" fill="none" xmlns="http://www.w3.org/2000/svg">
  <path d="M9 7.708a2.708 2.708 0 1 0 0 5.417 2.708 2.708 0 0 0 0-5.417Z" fill="#F59256"/>
  <path fill-rule="evenodd" clip-rule="evenodd" d="M6.708.208c-1.15 0-2.083.933-2.083 2.084v.148a.685.685 0 0 1-.685.685A3.899 3.899 0 0 0 .042 7.024v3.842c0 1.336 0 2.384.08 3.22.08.854.248 1.552.626 2.168a4.792 4.792 0 0 0 1.582 1.581c.615.378 1.314.546 2.167.627.837.08 1.884.08 3.22.08h2.566c1.336 0 2.383 0 3.22-.08.853-.081 1.552-.25 2.167-.627a4.792 4.792 0 0 0 1.582-1.581c.378-.616.546-1.315.627-2.168.08-.836.08-1.884.08-3.22V7.024a3.899 3.899 0 0 0-3.9-3.9.684.684 0 0 1-.684-.684v-.148c0-1.151-.933-2.084-2.083-2.084H6.708ZM5.042 10.417a3.958 3.958 0 1 1 7.916 0 3.958 3.958 0 0 1-7.916 0ZM14 7.917a.833.833 0 1 1 0-1.667.833.833 0 0 1 0 1.667Z" fill="#F59256"/>
</symbol>
<symbol id="burger-menu-mobile" viewBox="0 0 40 20" fill="none" xmlns="http://www.w3.org/2000/svg">
  <path d="M0 20h30v-3.333H0V20Zm0-8.333h30V8.333H0v3.334ZM0 0v3.333h30V0H0Z" fill="#212121"/>
</symbol>
<symbol id="burger-menu-tablet" viewBox="0 0 30 20" fill="none" xmlns="http://www.w3.org/2000/svg">
  <path d="M0 20h30v-3.333H0V20Zm0-8.333h30V8.333H0v3.334ZM0 0v3.333h30V0H0Z" fill="#212121"/>
</symbol>
<symbol id="heart-home-page-desc" viewBox="0 0 92 89" fill="none" xmlns="http://www.w3.org/2000/svg">
  <path fill-rule="evenodd" clip-rule="evenodd" d="M64.107.573c8.684-2.28 18.417 2.51 23.33 9.708 4.693 6.761 5.97 16.291 2.6 23.864-1.23 2.677-3.194 5.045-5.09 7.33-.292.353-.584.704-.87 1.055-2.53 3.258-4.916 6.864-6.389 10.625-1.578 3.98-2.127 8.302-2.665 12.539l-.21 1.64c-.275 1.8-.548 3.6-.797 5.403.02 2.15-.221 4.3-.78 6.37-.367 2.585-1.044 5.128-2.683 7.185-1.506 1.981-3.713 2.697-6.02 2.664-.684.081-1.399.053-2.141-.108a10.695 10.695 0 0 1-2.618-.877c-.238-.091-.47-.187-.7-.287-3.729-1.67-6.802-4.486-9.161-7.79-1.024-.897-2.055-1.786-3.086-2.676-.41-.367-.818-.737-1.227-1.109-3.165-2.868-6.393-5.795-10.18-7.791-3.565-1.899-7.723-3.086-11.763-3.916-.446-.08-.896-.157-1.349-.235-2.925-.503-5.956-1.024-8.632-2.257C6.19 58.35.962 50.28.131 42.09c-.95-8.663 3.327-18.631 11.406-22.548 8.318-4.034 18.536-1.542 26.378 2.137a68.475 68.475 0 0 1 5.418 2.758 68.411 68.411 0 0 1 2.127-5.087C49.024 11.456 55.165 2.917 64.107.573Z" fill="url(#a)"/>
  <defs>
    <linearGradient id="a" x1="86.509" y1="39.896" x2="-54.221" y2="71.635" gradientUnits="userSpaceOnUse">
      <stop stop-color="#EC4C76"/>
      <stop offset=".518" stop-color="#FEBB40"/>
      <stop offset="1" stop-color="#fff"/>
    </linearGradient>
  </defs>
</symbol>
<symbol id="line-mobile" viewBox="0 0 200 4" fill="none" xmlns="http://www.w3.org/2000/svg">
  <rect width="200" height="4" rx="2" fill="url(#a)"/>
  <defs>
    <linearGradient id="a" x1="0" y1="2.154" x2="210.888" y2="2.154" gradientUnits="userSpaceOnUse">
      <stop stop-color="#FF634E"/>
      <stop offset="1" stop-color="#FFDF48"/>
    </linearGradient>
  </defs>
</symbol>
<symbol id="line-tablet" viewBox="0 0 280 8" fill="none" xmlns="http://www.w3.org/2000/svg">
  <rect width="280" height="8" rx="4" fill="url(#a)"/>
  <defs>
    <linearGradient id="a" x1="0" y1="4.308" x2="295.244" y2="4.308" gradientUnits="userSpaceOnUse">
      <stop stop-color="#FF634E"/>
      <stop offset="1" stop-color="#FFDF48"/>
    </linearGradient>
  </defs>
</symbol>
<symbol id="line-desc" viewBox="0 0 340 8" fill="none" xmlns="http://www.w3.org/2000/svg">
  <path d="M0 4a4 4 0 0 1 4-4h332a4 4 0 0 1 0 8H4a4 4 0 0 1-4-4Z" fill="url(#a)"/>
  <defs>
    <linearGradient id="a" x1="0" y1="4.308" x2="358.51" y2="4.308" gradientUnits="userSpaceOnUse">
      <stop stop-color="#FF634E"/>
      <stop offset="1" stop-color="#FFDF48"/>
    </linearGradient>
  </defs>
</symbol>
<symbol id="delete-button" viewBox="0 0 18 18"  xmlns="http://www.w3.org/2000/svg">
  <path d="M7.75 2.75h2.5a1.25 1.25 0 0 0-2.5 0Zm-1.25 0a2.5 2.5 0 1 1 5 0h5a.625.625 0 1 1 0 1.25h-.705l-1.506 11.047a3.125 3.125 0 0 1-3.096 2.703H6.808a3.125 3.125 0 0 1-3.097-2.703L2.205 4H1.5a.625.625 0 0 1 0-1.25h5Zm1.25 4.375a.625.625 0 0 0-1.25 0v6.25a.625.625 0 1 0 1.25 0v-6.25Zm3.125-.625a.625.625 0 0 0-.625.625v6.25a.624.624 0 1 0 1.25 0v-6.25a.625.625 0 0 0-.625-.625Z" fill="#FF6101"/>
</symbol>
<symbol id="heart" viewBox="0 0 26 24" fill="none" xmlns="http://www.w3.org/2000/svg">
  <g filter="url(#a)">
    <path d="M7 1C3.687 1 1 3.734 1 7.106c0 2.723 1.05 9.185 11.386 15.717a1.158 1.158 0 0 0 1.228 0C23.95 16.29 25 9.829 25 7.106 25 3.734 22.313 1 19 1s-6 3.7-6 3.7S10.313 1 7 1Z" fill="#fff" fill-opacity=".6"/>
    <path d="M7 1C3.687 1 1 3.734 1 7.106c0 2.723 1.05 9.185 11.386 15.717a1.158 1.158 0 0 0 1.228 0C23.95 16.29 25 9.829 25 7.106 25 3.734 22.313 1 19 1s-6 3.7-6 3.7S10.313 1 7 1Z" stroke="#F59256" stroke-width="2" stroke-linecap="round" stroke-linejoin="round"/>
  </g>
  <defs>
    <filter id="a" x="-4" y="-4" width="34" height="32" filterUnits="userSpaceOnUse" color-interpolation-filters="sRGB">
      <feFlood flood-opacity="0" result="BackgroundImageFix"/>
      <feGaussianBlur in="BackgroundImageFix" stdDeviation="2"/>
      <feComposite in2="SourceAlpha" operator="in" result="effect1_backgroundBlur_2702_59"/>
      <feBlend in="SourceGraphic" in2="effect1_backgroundBlur_2702_59" result="shape"/>
    </filter>
  </defs>
</symbol>
<symbol id="search-mobile" viewBox="0 0 16 16" fill="none" xmlns="http://www.w3.org/2000/svg">
  <path d="M10.917 9.667h-.659l-.233-.225a5.393 5.393 0 0 0 1.308-3.525 5.416 5.416 0 1 0-5.416 5.416 5.393 5.393 0 0 0 3.525-1.308l.225.233v.659l4.166 4.158 1.242-1.242-4.158-4.166Zm-5 0a3.745 3.745 0 0 1-3.75-3.75 3.745 3.745 0 0 1 3.75-3.75 3.745 3.745 0 0 1 3.75 3.75 3.745 3.745 0 0 1-3.75 3.75Z" fill="#111"/>
</symbol>
<symbol id="search" viewBox="0 0 18 18" fill="none" xmlns="http://www.w3.org/2000/svg">
  <path d="M12.5 11h-.79l-.28-.27A6.471 6.471 0 0 0 13 6.5 6.5 6.5 0 1 0 6.5 13c1.61 0 3.09-.59 4.23-1.57l.27.28v.79l5 4.99L17.49 16l-4.99-5Zm-6 0C4.01 11 2 8.99 2 6.5S4.01 2 6.5 2 11 4.01 11 6.5 8.99 11 6.5 11Z" fill="#111"/>
</symbol>
<symbol id="plus-add-pet-mobile" viewBox="0 0 24 24"  xmlns="http://www.w3.org/2000/svg">
  <path d="M12 22.666V12v10.666ZM12 12V1.333 12Zm0 0h10.666H12Zm0 0H1.333 12Z" />
  <path d="M12 22.666V12m0 0V1.333M12 12h10.666M12 12H1.333" stroke="#fff" stroke-width="2" stroke-linecap="round"/>
</symbol>
<symbol id="plus-add-pet" viewBox="0 0 18 18" fill="none" xmlns="http://www.w3.org/2000/svg">
  <path d="M9 17V9m0 0V1m0 8h8M9 9H1" stroke="#fff" stroke-width="2" stroke-linecap="round"/>
</symbol>
<symbol id="avatar-account" viewBox="0 0 28 28" fill="none" xmlns="http://www.w3.org/2000/svg">
  <path d="M14 2.333C7.56 2.333 2.333 7.56 2.333 14c0 6.44 5.227 11.667 11.667 11.667 6.44 0 11.666-5.227 11.666-11.667C25.666 7.56 20.44 2.333 14 2.333ZM14 7a4.088 4.088 0 0 1 4.083 4.083A4.088 4.088 0 0 1 14 15.167a4.088 4.088 0 0 1-4.084-4.084A4.088 4.088 0 0 1 14 7Zm0 16.333c-2.369 0-5.169-.956-7.164-3.36a11.604 11.604 0 0 1 14.327 0c-1.995 2.404-4.795 3.36-7.163 3.36Z" fill="#fff"/>
</symbol>
<symbol id="heart-button" viewBox="0 0 17 14" fill="none" xmlns="http://www.w3.org/2000/svg">
  <path d="M5.167 1c-1.84 0-3.333 1.477-3.333 3.3 0 1.471.583 4.963 6.325 8.493a.657.657 0 0 0 .682 0c5.743-3.53 6.326-7.022 6.326-8.493 0-1.823-1.493-3.3-3.333-3.3C9.993 1 8.5 3 8.5 3S7.008 1 5.167 1Z" fill="#F59256" stroke="#F59256" stroke-width="2" stroke-linecap="round" stroke-linejoin="round"/>
</symbol>
<symbol id="close-small-modal-mobile" viewBox="0 0 16 16" fill="none" xmlns="http://www.w3.org/2000/svg">
  <path d="m9.097 8 6.447-6.448A.778.778 0 0 0 14.448.455L8 6.903 1.552.447A.78.78 0 1 0 .448 1.552L6.903 8 .448 14.447a.777.777 0 1 0 1.096 1.097L8 9.096l6.448 6.448a.778.778 0 0 0 1.096-1.097L9.097 8Z" fill="#000"/>
</symbol>

<symbol id="icon-edit_check" viewBox="0 0 32 32">
  <path style="fill: var(--color1, #f59256)" d="M26.976 5.252c0.923 0.879 0.959 2.34 0.080 3.263l-14.646 15.385c-0.436 0.458-1.040 0.716-1.671 0.716s-1.236-0.259-1.671-0.716l-6.892-7.24c-0.879-0.923-0.843-2.384 0.080-3.263s2.384-0.843 3.263 0.080l5.221 5.484 12.975-13.629c0.879-0.923 2.339-0.959 3.263-0.080z"></path>
</symbol>
<symbol id="icon-edit_pencil" viewBox="0 0 32 32">
  <path style="fill: var(--color1, #f59256)" d="M6.976 26.214c-0.165-0-0.328-0.035-0.48-0.102s-0.287-0.164-0.398-0.286c-0.113-0.121-0.2-0.264-0.254-0.421s-0.074-0.323-0.059-0.488l0.292-3.207 13.474-13.469 4.211 4.21-13.47 13.468-3.207 0.292c-0.036 0.003-0.072 0.005-0.108 0.005zM24.603 11.608l-4.21-4.21 2.525-2.525c0.111-0.111 0.242-0.199 0.386-0.258s0.299-0.091 0.456-0.091c0.156 0 0.311 0.031 0.456 0.091s0.276 0.148 0.387 0.258l2.525 2.525c0.111 0.111 0.199 0.242 0.259 0.386s0.091 0.299 0.091 0.456c0 0.156-0.031 0.311-0.091 0.456s-0.148 0.276-0.259 0.386l-2.525 2.525z"></path>
</symbol>
</defs>

  <svg id="delete" width="18" height="18" viewBox="0 0 18 18" xmlns="http://www.w3.org/2000/svg">
<path d="M7.75 2.75H10.25C10.25 2.41848 10.1183 2.10054 9.88388 1.86612C9.64946 1.6317 9.33152 1.5 9 1.5C8.66848 1.5 8.35054 1.6317 8.11612 1.86612C7.8817 2.10054 7.75 2.41848 7.75 2.75ZM6.5 2.75C6.5 2.08696 6.76339 1.45107 7.23223 0.982233C7.70107 0.513392 8.33696 0.25 9 0.25C9.66304 0.25 10.2989 0.513392 10.7678 0.982233C11.2366 1.45107 11.5 2.08696 11.5 2.75H16.5C16.6658 2.75 16.8247 2.81585 16.9419 2.93306C17.0592 3.05027 17.125 3.20924 17.125 3.375C17.125 3.54076 17.0592 3.69973 16.9419 3.81694C16.8247 3.93415 16.6658 4 16.5 4H15.795L14.2887 15.0475C14.1866 15.7962 13.8166 16.4825 13.2474 16.9793C12.6781 17.4762 11.9481 17.75 11.1925 17.75H6.8075C6.0519 17.75 5.32189 17.4762 4.75263 16.9793C4.18336 16.4825 3.81341 15.7962 3.71125 15.0475L2.205 4H1.5C1.33424 4 1.17527 3.93415 1.05806 3.81694C0.940848 3.69973 0.875 3.54076 0.875 3.375C0.875 3.20924 0.940848 3.05027 1.05806 2.93306C1.17527 2.81585 1.33424 2.75 1.5 2.75H6.5ZM7.75 7.125C7.75 6.95924 7.68415 6.80027 7.56694 6.68306C7.44973 6.56585 7.29076 6.5 7.125 6.5C6.95924 6.5 6.80027 6.56585 6.68306 6.68306C6.56585 6.80027 6.5 6.95924 6.5 7.125V13.375C6.5 13.5408 6.56585 13.6997 6.68306 13.8169C6.80027 13.9342 6.95924 14 7.125 14C7.29076 14 7.44973 13.9342 7.56694 13.8169C7.68415 13.6997 7.75 13.5408 7.75 13.375V7.125ZM10.875 6.5C10.7092 6.5 10.5503 6.56585 10.4331 6.68306C10.3158 6.80027 10.25 6.95924 10.25 7.125V13.375C10.25 13.5408 10.3158 13.6997 10.4331 13.8169C10.5503 13.9342 10.7092 14 10.875 14C11.0408 14 11.1997 13.9342 11.3169 13.8169C11.4342 13.6997 11.5 13.5408 11.5 13.375V7.125C11.5 6.95924 11.4342 6.80027 11.3169 6.68306C11.1997 6.56585 11.0408 6.5 10.875 6.5Z" />
</svg>

<svg id="plusImg" width="50" height="52" viewBox="0 0 50 52" fill="none" xmlns="http://www.w3.org/2000/svg">
<path d="M25 50.1787V25.8887M25 25.8887V1.59863M25 25.8887H49M25 25.8887H1" stroke="#111111" stroke-opacity="0.6" stroke-width="2" stroke-linecap="round"/>
</svg>
</svg>
