<svg width="1539" height="538" viewBox="0 0 1539 538" fill="none" xmlns="http://www.w3.org/2000/svg">
<g clip-path="url(#clip0_44_689)">
<path d="M1225.8 43.2984C1241.23 49.6686 1255.8 57.3128 1269.95 66.2311C1364.68 124.837 1424.69 239.075 1407.12 348.218C1389.12 459.059 1270.81 616.614 1153.79 639.547C1115.64 647.191 1076.63 636.574 1039.33 625.108C976.751 605.997 918.026 574.996 856.3 557.159C832.295 550.364 806.147 548.666 783 558.009C742.707 574.146 732.848 608.97 715.702 644.218C696.412 684.138 663.834 717.688 624.398 738.497C543.383 780.965 438.791 761.005 363.777 715.14C252.327 647.191 212.463 513.417 249.327 391.959C258.757 360.533 273.76 329.532 298.622 307.448C341.059 269.227 404.928 262.432 460.653 276.447C499.232 286.214 534.381 304.9 567.816 325.285C595.25 342.272 620.54 365.629 654.404 365.629C722.989 366.054 743.993 278.57 765.854 229.732C794.574 165.181 843.012 108.699 903.023 70.9025C999.899 9.32416 1120.35 -1.2928 1225.8 43.2984Z" fill="url(#paint0_linear_44_689)"/>
<path d="M1225.84 43.5566C1241.26 49.9254 1255.83 57.5681 1269.97 66.4845C1364.65 125.078 1424.64 239.293 1407.07 348.414C1389.08 459.232 1270.82 616.756 1153.85 639.684C1115.72 647.326 1076.73 636.712 1039.46 625.248C976.904 606.141 918.206 575.146 856.508 557.313C832.515 550.519 806.379 548.821 783.243 558.162C742.968 574.297 733.114 609.113 715.976 644.354C696.695 684.266 664.133 717.809 624.715 738.614C543.737 781.073 439.195 761.117 364.215 715.261C252.818 647.326 212.972 513.58 249.819 392.147C259.244 360.727 274.24 329.732 299.091 307.653C341.508 269.439 405.347 262.646 461.046 276.658C499.607 286.423 534.74 305.105 568.159 325.486C595.58 342.469 620.859 365.822 654.707 365.822C723.259 366.246 744.254 278.781 766.105 229.952C794.811 165.414 843.226 108.944 903.21 71.155C1000.04 9.58919 1120.44 -1.02561 1225.84 43.5566Z" fill="url(#paint1_radial_44_689)"/>
<path d="M216.32 915.588C22.569 770.773 135.734 451.839 322.198 354.163C392.068 317.641 473.512 303.626 551.956 313.819C622.684 323.161 710.986 346.943 783.429 319.764C838.297 298.955 863.587 247.569 892.307 200.854C972.036 70.9025 1173.07 46.6958 1272.95 169.853C1309.82 215.293 1324.82 278.57 1306.81 334.203C1264.38 463.305 1122.07 408.097 1041.48 477.32C1009.33 504.924 1000.76 560.132 981.895 597.079C962.606 634.875 939.03 670.973 913.74 705.372C860.587 777.992 795.86 844.242 721.274 895.628C572.531 998.4 386.496 1028.98 229.18 924.931C224.893 921.958 220.607 918.985 216.32 915.588Z" fill="url(#paint2_linear_44_689)"/>
<path d="M216.32 915.588C22.569 770.773 135.734 451.839 322.198 354.163C392.068 317.641 473.512 303.626 551.956 313.819C622.684 323.161 710.986 346.943 783.429 319.764C838.297 298.955 863.587 247.569 892.307 200.854C972.036 70.9025 1173.07 46.6958 1272.95 169.853C1309.82 215.293 1324.82 278.57 1306.81 334.203C1264.38 463.305 1122.07 408.097 1041.48 477.32C1009.33 504.924 1000.76 560.132 981.895 597.079C962.606 634.875 939.03 670.973 913.74 705.372C860.587 777.992 795.86 844.242 721.274 895.628C572.531 998.4 386.496 1028.98 229.18 924.931C224.893 921.958 220.607 918.985 216.32 915.588Z" fill="url(#paint3_radial_44_689)"/>
</g>
<g clip-path="url(#clip1_44_689)">
<path d="M105.665 855.097C-70.6445 722.073 32.333 429.109 202.012 339.386C265.593 305.837 339.705 292.964 411.087 302.326C475.448 310.909 555.802 332.754 621.723 307.788C671.652 288.673 694.666 241.471 720.8 198.56C793.352 79.1899 976.293 56.9542 1067.18 170.083C1100.72 211.824 1114.38 269.948 1097.99 321.051C1059.38 439.641 929.875 388.928 856.543 452.515C827.288 477.871 819.487 528.584 802.324 562.523C784.771 597.241 763.317 630.4 740.303 661.998C691.935 728.705 633.035 789.56 565.164 836.762C429.811 931.166 260.522 959.253 117.367 863.679C113.467 860.948 109.566 858.218 105.665 855.097Z" fill="url(#paint4_linear_44_689)"/>
<path d="M105.665 855.097C-70.6445 722.073 32.333 429.109 202.012 339.386C265.593 305.837 339.705 292.964 411.087 302.326C475.448 310.909 555.802 332.754 621.723 307.788C671.652 288.673 694.666 241.471 720.8 198.56C793.352 79.1899 976.293 56.9542 1067.18 170.083C1100.72 211.824 1114.38 269.948 1097.99 321.051C1059.38 439.641 929.875 388.928 856.543 452.515C827.288 477.871 819.487 528.584 802.324 562.523C784.771 597.241 763.317 630.4 740.303 661.998C691.935 728.705 633.035 789.56 565.164 836.762C429.811 931.166 260.522 959.253 117.367 863.679C113.467 860.948 109.566 858.218 105.665 855.097Z" fill="url(#paint5_radial_44_689)"/>
<path d="M198.5 152C178.342 152 162 135.658 162 115.5C162 95.3416 178.342 79 198.5 79C218.658 79 235 95.3416 235 115.5C235 135.658 218.658 152 198.5 152Z" fill="url(#paint6_linear_44_689)"/>
<path d="M419.5 269C402.103 269 388 254.897 388 237.5C388 220.103 402.103 206 419.5 206C436.897 206 451 220.103 451 237.5C451 254.897 436.897 269 419.5 269Z" fill="url(#paint7_linear_44_689)"/>
</g>
<defs>
<linearGradient id="paint0_linear_44_689" x1="170.366" y1="776.404" x2="1787.4" y2="-115" gradientUnits="userSpaceOnUse">
<stop stop-color="#FF9370"/>
<stop offset="1" stop-color="#FFDF00"/>
</linearGradient>
<radialGradient id="paint1_radial_44_689" cx="0" cy="0" r="1" gradientUnits="userSpaceOnUse" gradientTransform="translate(828.53 -99.209) rotate(79.6257) scale(1313.6 1235.52)">
<stop stop-color="#FEBB40"/>
<stop offset="0.5576" stop-color="#EC4C76"/>
<stop offset="0.9726" stop-color="#D60B52"/>
</radialGradient>
<linearGradient id="paint2_linear_44_689" x1="1291.45" y1="-450.926" x2="263.503" y2="1208.7" gradientUnits="userSpaceOnUse">
<stop stop-color="#FFDF00"/>
<stop offset="1" stop-color="#FF9370"/>
</linearGradient>
<radialGradient id="paint3_radial_44_689" cx="0" cy="0" r="1" gradientUnits="userSpaceOnUse" gradientTransform="translate(987.512 161.069) rotate(-122.724) scale(1401.84 2365.81)">
<stop stop-color="#FEBB40"/>
<stop offset="0.5576" stop-color="#EC4C76"/>
<stop offset="0.9726" stop-color="#D60B52"/>
</radialGradient>
<linearGradient id="paint4_linear_44_689" x1="1084.01" y1="-400.149" x2="135.837" y2="1116.36" gradientUnits="userSpaceOnUse">
<stop stop-color="#FFDF00"/>
<stop offset="1" stop-color="#FF9370"/>
</linearGradient>
<radialGradient id="paint5_radial_44_689" cx="0" cy="0" r="1" gradientUnits="userSpaceOnUse" gradientTransform="translate(807.435 162.015) rotate(-122.48) scale(1284.19 2158.72)">
<stop stop-color="#FEBB40"/>
<stop offset="0.5576" stop-color="#EC4C76"/>
<stop offset="0.9726" stop-color="#D60B52"/>
</radialGradient>
<linearGradient id="paint6_linear_44_689" x1="113.232" y1="175.573" x2="287.273" y2="52.6448" gradientUnits="userSpaceOnUse">
<stop stop-color="#EC4C76"/>
<stop offset="0.703531" stop-color="#FEBB40"/>
<stop offset="1" stop-color="white"/>
</linearGradient>
<linearGradient id="paint7_linear_44_689" x1="345.913" y1="289.344" x2="496.113" y2="183.255" gradientUnits="userSpaceOnUse">
<stop stop-color="#EC4C76"/>
<stop offset="0.5183" stop-color="#FEBB40"/>
<stop offset="1" stop-color="white"/>
</linearGradient>
<clipPath id="clip0_44_689">
<rect width="880" height="522" fill="white" transform="translate(659 16)"/>
</clipPath>
<clipPath id="clip1_44_689">
<rect width="1298.67" height="538" fill="white" transform="matrix(-1 0 0 1 1298.67 0)"/>
</clipPath>
</defs>
</svg>
