<svg width="1492" height="538" viewBox="0 0 1492 538" fill="none" xmlns="http://www.w3.org/2000/svg">
<g clip-path="url(#clip0_200_701)">
<path d="M1222.85 44.2984C1238.28 50.6686 1252.85 58.3128 1267 67.2311C1361.73 125.837 1421.74 240.075 1404.17 349.218C1386.16 460.059 1267.85 617.614 1150.83 640.547C1112.68 648.191 1073.67 637.574 1036.38 626.108C973.798 606.997 915.072 575.996 853.346 558.159C829.341 551.365 803.194 549.666 780.046 559.009C739.753 575.146 729.894 609.97 712.748 645.218C693.458 685.138 660.881 718.688 621.445 739.497C540.429 781.965 435.838 762.005 360.823 716.14C249.373 648.191 209.509 514.417 246.373 392.959C255.803 361.533 270.806 330.532 295.668 308.448C338.105 270.227 401.974 263.432 457.699 277.447C496.278 287.214 531.427 305.9 564.862 326.285C592.296 343.272 617.587 366.629 651.45 366.629C720.035 367.054 741.039 279.57 762.9 230.732C791.62 166.181 840.058 109.699 900.069 71.9025C996.945 10.3242 1117.4 -0.292799 1222.85 44.2984Z" fill="url(#paint0_linear_200_701)"/>
<path d="M1222.88 44.5566C1238.31 50.9254 1252.87 58.5681 1267.01 67.4845C1361.7 126.078 1421.68 240.293 1404.12 349.414C1386.12 460.232 1267.87 617.756 1150.9 640.684C1112.77 648.326 1073.78 637.712 1036.5 626.248C973.95 607.141 915.252 576.146 853.555 558.313C829.561 551.519 803.426 549.821 780.289 559.162C740.015 575.297 730.16 610.113 713.022 645.354C693.742 685.266 661.179 718.809 621.761 739.614C540.784 782.073 436.241 762.117 361.262 716.261C249.864 648.326 210.018 514.58 246.865 393.147C256.291 361.727 271.287 330.732 296.137 308.653C338.554 270.439 402.393 263.646 458.092 277.658C496.653 287.423 531.786 306.105 565.206 326.486C592.627 343.469 617.905 366.822 651.753 366.822C720.306 367.246 741.3 279.781 763.151 230.952C791.857 166.414 840.273 109.944 900.256 72.155C997.087 10.5892 1117.48 -0.0256062 1222.88 44.5566Z" fill="url(#paint1_radial_200_701)"/>
<path d="M213.367 916.588C19.6156 771.773 132.78 452.839 319.244 355.163C389.115 318.641 470.559 304.626 549.003 314.819C619.731 324.161 708.033 347.943 780.476 320.764C835.343 299.955 860.634 248.569 889.353 201.854C969.083 71.9025 1170.12 47.6958 1270 170.853C1306.86 216.293 1321.86 279.57 1303.86 335.203C1261.42 464.305 1119.11 409.097 1038.52 478.32C1006.38 505.924 997.803 561.132 978.942 598.079C959.653 635.875 936.077 671.973 910.786 706.372C857.633 778.992 792.906 845.242 718.321 896.628C569.578 999.4 383.542 1029.98 226.227 925.931C221.94 922.958 217.654 919.985 213.367 916.588Z" fill="url(#paint2_linear_200_701)"/>
<path d="M213.367 916.588C19.6156 771.773 132.78 452.839 319.244 355.163C389.115 318.641 470.559 304.626 549.003 314.819C619.731 324.161 708.033 347.943 780.476 320.764C835.343 299.955 860.634 248.569 889.353 201.854C969.083 71.9025 1170.12 47.6958 1270 170.853C1306.86 216.293 1321.86 279.57 1303.86 335.203C1261.42 464.305 1119.11 409.097 1038.52 478.32C1006.38 505.924 997.803 561.132 978.942 598.079C959.653 635.875 936.077 671.973 910.786 706.372C857.633 778.992 792.906 845.242 718.321 896.628C569.578 999.4 383.542 1029.98 226.227 925.931C221.94 922.958 217.654 919.985 213.367 916.588Z" fill="url(#paint3_radial_200_701)"/>
</g>
<g clip-path="url(#clip1_200_701)">
<path d="M1008.27 53.8335C1022.31 59.685 1035.58 66.7067 1048.45 74.8988C1134.65 128.732 1189.26 233.669 1173.27 333.925C1156.89 435.74 1049.23 580.467 942.74 601.532C908.024 608.554 872.528 598.802 838.593 588.269C781.643 570.715 728.204 542.237 672.034 525.853C650.191 519.612 626.397 518.051 605.333 526.633C568.667 541.457 559.695 573.445 544.093 605.824C526.54 642.493 496.895 673.311 461.008 692.426C387.286 731.435 292.11 713.101 223.848 670.97C122.431 608.554 86.1549 485.673 119.701 374.105C128.282 345.237 141.934 316.76 164.558 296.475C203.175 261.366 261.295 255.125 312.003 267.998C347.109 276.97 379.095 294.134 409.52 312.859C434.484 328.463 457.498 349.919 488.313 349.919C550.724 350.309 569.837 269.948 589.73 225.087C615.865 165.792 659.942 113.909 714.552 79.1899C802.707 22.6256 912.315 12.8731 1008.27 53.8335Z" fill="url(#paint4_linear_200_701)"/>
<path d="M1008.3 54.0706C1022.34 59.9209 1035.6 66.9412 1048.46 75.1316C1134.63 128.954 1189.21 233.87 1173.22 334.105C1156.85 435.9 1049.24 580.597 942.803 601.658C908.104 608.678 872.624 598.928 838.704 588.397C781.781 570.846 728.367 542.375 672.224 525.994C650.39 519.754 626.607 518.194 605.553 526.774C568.904 541.595 559.937 573.577 544.342 605.948C526.797 642.61 497.166 673.422 461.296 692.533C387.608 731.535 292.476 713.204 224.247 671.082C122.877 608.678 86.6177 485.822 120.148 374.277C128.725 345.415 142.371 316.944 164.984 296.663C203.583 261.561 261.676 255.321 312.361 268.191C347.45 277.162 379.421 294.323 409.832 313.044C434.784 328.644 457.787 350.095 488.588 350.095C550.97 350.485 570.074 270.141 589.958 225.289C616.08 166.006 660.137 114.134 714.721 79.4218C802.835 22.869 912.392 13.1185 1008.3 54.0706Z" fill="url(#paint5_radial_200_701)"/>
<path d="M89.6655 855.097C-86.6445 722.073 16.333 429.109 186.012 339.386C249.593 305.837 323.705 292.964 395.087 302.326C459.448 310.909 539.802 332.754 605.723 307.788C655.652 288.673 678.666 241.471 704.8 198.56C777.352 79.1899 960.293 56.9542 1051.18 170.083C1084.72 211.824 1098.38 269.948 1081.99 321.051C1043.38 439.641 913.875 388.928 840.543 452.515C811.288 477.871 803.487 528.584 786.324 562.523C768.771 597.241 747.317 630.4 724.303 661.998C675.935 728.705 617.035 789.56 549.164 836.762C413.811 931.166 244.522 959.253 101.367 863.679C97.4669 860.948 93.5661 858.218 89.6655 855.097Z" fill="url(#paint6_linear_200_701)"/>
<path d="M89.6655 855.097C-86.6445 722.073 16.333 429.109 186.012 339.386C249.593 305.837 323.705 292.964 395.087 302.326C459.448 310.909 539.802 332.754 605.723 307.788C655.652 288.673 678.666 241.471 704.8 198.56C777.352 79.1899 960.293 56.9542 1051.18 170.083C1084.72 211.824 1098.38 269.948 1081.99 321.051C1043.38 439.641 913.875 388.928 840.543 452.515C811.288 477.871 803.487 528.584 786.324 562.523C768.771 597.241 747.317 630.4 724.303 661.998C675.935 728.705 617.035 789.56 549.164 836.762C413.811 931.166 244.522 959.253 101.367 863.679C97.4669 860.948 93.5661 858.218 89.6655 855.097Z" fill="url(#paint7_radial_200_701)"/>
<path d="M555.5 239C538.103 239 524 224.897 524 207.5C524 190.103 538.103 176 555.5 176C572.897 176 587 190.103 587 207.5C587 224.897 572.897 239 555.5 239Z" fill="url(#paint8_linear_200_701)"/>
<path d="M421.5 146C401.342 146 385 129.658 385 109.5C385 89.3416 401.342 73 421.5 73C441.658 73 458 89.3416 458 109.5C458 129.658 441.658 146 421.5 146Z" fill="url(#paint9_linear_200_701)"/>
</g>
<defs>
<linearGradient id="paint0_linear_200_701" x1="167.412" y1="777.404" x2="1784.44" y2="-114" gradientUnits="userSpaceOnUse">
<stop stop-color="#FF9370"/>
<stop offset="1" stop-color="#FFDF00"/>
</linearGradient>
<radialGradient id="paint1_radial_200_701" cx="0" cy="0" r="1" gradientUnits="userSpaceOnUse" gradientTransform="translate(825.577 -98.209) rotate(79.6257) scale(1313.6 1235.52)">
<stop stop-color="#FEBB40"/>
<stop offset="0.5576" stop-color="#EC4C76"/>
<stop offset="0.9726" stop-color="#D60B52"/>
</radialGradient>
<linearGradient id="paint2_linear_200_701" x1="1288.5" y1="-449.926" x2="260.55" y2="1209.7" gradientUnits="userSpaceOnUse">
<stop stop-color="#FFDF00"/>
<stop offset="1" stop-color="#FF9370"/>
</linearGradient>
<radialGradient id="paint3_radial_200_701" cx="0" cy="0" r="1" gradientUnits="userSpaceOnUse" gradientTransform="translate(984.559 162.069) rotate(-122.724) scale(1401.84 2365.81)">
<stop stop-color="#FEBB40"/>
<stop offset="0.5576" stop-color="#EC4C76"/>
<stop offset="0.9726" stop-color="#D60B52"/>
</radialGradient>
<linearGradient id="paint4_linear_200_701" x1="47.8479" y1="727.246" x2="1525.73" y2="-79.8282" gradientUnits="userSpaceOnUse">
<stop stop-color="#FF9370"/>
<stop offset="1" stop-color="#FFDF00"/>
</linearGradient>
<radialGradient id="paint5_radial_200_701" cx="0" cy="0" r="1" gradientUnits="userSpaceOnUse" gradientTransform="translate(646.764 -77.0703) rotate(79.7207) scale(1206.28 1124.64)">
<stop stop-color="#FEBB40"/>
<stop offset="0.5576" stop-color="#EC4C76"/>
<stop offset="0.9726" stop-color="#D60B52"/>
</radialGradient>
<linearGradient id="paint6_linear_200_701" x1="1068.01" y1="-400.149" x2="119.837" y2="1116.36" gradientUnits="userSpaceOnUse">
<stop stop-color="#FFDF00"/>
<stop offset="1" stop-color="#FF9370"/>
</linearGradient>
<radialGradient id="paint7_radial_200_701" cx="0" cy="0" r="1" gradientUnits="userSpaceOnUse" gradientTransform="translate(791.435 162.015) rotate(-122.48) scale(1284.19 2158.72)">
<stop stop-color="#FEBB40"/>
<stop offset="0.5576" stop-color="#EC4C76"/>
<stop offset="0.9726" stop-color="#D60B52"/>
</radialGradient>
<linearGradient id="paint8_linear_200_701" x1="481.913" y1="259.344" x2="632.113" y2="153.255" gradientUnits="userSpaceOnUse">
<stop stop-color="#EC4C76"/>
<stop offset="0.5183" stop-color="#FEBB40"/>
<stop offset="1" stop-color="white"/>
</linearGradient>
<linearGradient id="paint9_linear_200_701" x1="336.232" y1="169.573" x2="510.273" y2="46.6448" gradientUnits="userSpaceOnUse">
<stop stop-color="#EC4C76"/>
<stop offset="0.703531" stop-color="#FEBB40"/>
<stop offset="1" stop-color="white"/>
</linearGradient>
<clipPath id="clip0_200_701">
<rect width="738" height="521" fill="white" transform="translate(754 17)"/>
</clipPath>
<clipPath id="clip1_200_701">
<rect width="1246.27" height="538" fill="white" transform="matrix(-1 0 0 1 1246.27 0)"/>
</clipPath>
</defs>
</svg>
