<svg width="743" height="470" viewBox="0 0 743 470" fill="none" xmlns="http://www.w3.org/2000/svg">
<path d="M175.153 431.439C74.961 355.823 133.48 189.292 229.904 138.29C266.035 119.22 308.151 111.903 348.716 117.224C385.29 122.103 430.953 134.521 468.414 120.329C496.787 109.463 509.865 82.6321 524.717 58.24C565.946 -9.61432 669.907 -22.2539 721.554 42.0525C740.617 65.7794 748.375 98.8195 739.066 127.868C717.121 195.279 643.529 166.452 601.856 202.597C585.231 217.01 580.798 245.837 571.044 265.129C561.07 284.865 548.878 303.713 535.8 321.674C508.314 359.593 474.842 394.185 436.273 421.017C359.356 474.679 263.154 490.645 181.803 436.317C179.586 434.765 177.37 433.213 175.153 431.439Z" fill="url(#paint0_radial_8306_453)"/>
<defs>
<radialGradient id="paint0_radial_8306_453" cx="0" cy="0" r="1" gradientUnits="userSpaceOnUse" gradientTransform="translate(573.949 37.4663) rotate(-122.473) scale(729.916 1226.84)">
<stop stop-color="#FEBB40"/>
<stop offset="0.5576" stop-color="#EC4C76"/>
<stop offset="0.9726" stop-color="#D60B52"/>
</radialGradient>
</defs>
</svg>
