<svg width="1512" height="1009" viewBox="0 0 1512 1009" fill="none" xmlns="http://www.w3.org/2000/svg">
<g clip-path="url(#clip0_44_688)">
<path d="M1211.8 43.2984C1227.23 49.6686 1241.81 57.3128 1255.95 66.2311C1350.68 124.837 1410.69 239.075 1393.12 348.218C1375.12 459.059 1256.81 616.614 1139.79 639.547C1101.64 647.191 1062.63 636.574 1025.34 625.108C962.752 605.997 904.026 574.996 842.3 557.159C818.296 550.365 792.148 548.666 769 558.009C728.707 574.147 718.848 608.97 701.702 644.218C682.412 684.138 649.835 717.688 610.399 738.497C529.383 780.965 424.792 761.005 349.777 715.14C238.327 647.191 198.463 513.417 235.327 391.959C244.757 360.533 295 325.285 284.622 307.448C274.244 289.612 360.275 351.615 416 365.629C454.579 375.397 553.816 325.285 553.816 325.285C581.25 342.272 606.541 365.629 640.404 365.629C708.989 366.054 729.993 278.57 751.854 229.732C780.574 165.181 829.012 108.699 889.023 70.9025C985.899 9.32416 1106.35 -1.2928 1211.8 43.2984Z" fill="url(#paint0_linear_44_688)"/>
<path d="M1211.84 43.5566C1227.26 49.9254 1241.83 57.5681 1255.97 66.4845C1350.65 125.078 1410.64 239.293 1393.07 348.414C1375.08 459.232 1256.82 616.756 1139.86 639.684C1101.72 647.326 1062.73 636.712 1025.46 625.248C962.904 606.141 904.206 575.146 842.509 557.313C818.515 550.519 792.38 548.821 769.243 558.162C728.969 574.297 719.114 609.113 701.976 644.354C682.696 684.266 650.133 717.809 610.716 738.614C529.738 781.073 425.195 761.117 350.216 715.261C238.818 647.326 198.972 513.58 235.819 392.147C245.245 360.727 267.65 370.492 292.5 348.414C334.917 310.2 358.301 311.474 414 325.486C452.561 335.251 520.581 309.12 554 329.5C581.421 346.484 606.86 365.822 640.707 365.822C709.26 366.246 730.254 278.78 752.105 229.952C780.812 165.414 829.227 108.944 889.21 71.155C986.041 9.58919 1106.44 -1.02561 1211.84 43.5566Z" fill="url(#paint1_radial_44_688)"/>
<path d="M202.32 915.588C8.56871 770.773 121.733 451.839 308.198 354.163C378.068 317.641 456.056 318.308 534.5 328.5C605.228 337.843 696.986 346.943 769.429 319.764C824.296 298.955 849.587 247.569 878.307 200.854C958.036 70.9025 1159.07 46.6958 1258.95 169.853C1295.82 215.293 1310.82 278.57 1292.81 334.203C1250.38 463.305 1108.06 408.097 1027.48 477.32C995.329 504.924 986.756 560.132 967.895 597.079C948.606 634.875 925.03 670.973 899.739 705.372C846.586 777.992 781.86 844.242 707.274 895.628C558.531 998.4 372.496 1028.98 215.18 924.931C210.893 921.958 206.607 918.985 202.32 915.588Z" fill="url(#paint2_linear_44_688)"/>
<path d="M202.32 915.588C8.56871 770.773 121.733 451.839 308.198 354.163C378.068 317.641 455.556 325.808 534 336C604.728 345.343 696.986 346.943 769.429 319.764C824.296 298.955 849.587 247.569 878.307 200.854C958.036 70.9025 1159.07 46.6958 1258.95 169.853C1295.82 215.293 1310.82 278.57 1292.81 334.203C1250.38 463.305 1108.06 408.097 1027.48 477.32C995.329 504.924 986.756 560.132 967.895 597.079C948.606 634.875 925.03 670.973 899.739 705.372C846.586 777.992 781.86 844.242 707.274 895.628C558.531 998.4 372.496 1028.98 215.18 924.931C210.893 921.958 206.607 918.985 202.32 915.588Z" fill="url(#paint3_radial_44_688)"/>
</g>
<g clip-path="url(#clip1_44_688)">
<path d="M91.6655 855.097C-84.6445 722.073 18.333 429.109 188.012 339.386C251.593 305.837 325.705 292.964 397.087 302.326C461.448 310.909 541.802 332.754 607.723 307.788C657.652 288.673 680.666 241.471 706.8 198.56C779.352 79.1899 962.293 56.9542 1053.18 170.083C1086.72 211.824 1100.38 269.948 1083.99 321.051C1045.38 439.641 915.875 388.928 842.543 452.515C813.288 477.871 805.487 528.584 788.324 562.523C770.771 597.241 749.317 630.4 726.303 661.998C677.935 728.705 619.035 789.56 551.164 836.762C415.811 931.166 246.522 959.253 103.367 863.679C99.4668 860.948 95.5661 858.218 91.6655 855.097Z" fill="url(#paint4_linear_44_688)"/>
<path d="M91.6655 855.097C-84.6445 722.073 18.333 429.109 188.012 339.386C251.593 305.837 325.705 292.964 397.087 302.326C461.448 310.909 541.802 332.754 607.723 307.788C657.652 288.673 680.666 241.471 706.8 198.56C779.352 79.1899 962.293 56.9542 1053.18 170.083C1086.72 211.824 1100.38 269.948 1083.99 321.051C1045.38 439.641 915.875 388.928 842.543 452.515C813.288 477.871 805.487 528.584 788.324 562.523C770.771 597.241 749.317 630.4 726.303 661.998C677.935 728.705 619.035 789.56 551.164 836.762C415.811 931.166 246.522 959.253 103.367 863.679C99.4668 860.948 95.5661 858.218 91.6655 855.097Z" fill="url(#paint5_radial_44_688)"/>
<path d="M184.5 152C164.342 152 148 135.658 148 115.5C148 95.3416 164.342 79 184.5 79C204.658 79 221 95.3416 221 115.5C221 135.658 204.658 152 184.5 152Z" fill="url(#paint6_linear_44_688)"/>
<path d="M405.5 269C388.103 269 374 254.897 374 237.5C374 220.103 388.103 206 405.5 206C422.897 206 437 220.103 437 237.5C437 254.897 422.897 269 405.5 269Z" fill="url(#paint7_linear_44_688)"/>
</g>
<defs>
<linearGradient id="paint0_linear_44_688" x1="156.366" y1="776.404" x2="1773.4" y2="-115" gradientUnits="userSpaceOnUse">
<stop stop-color="#FF9370"/>
<stop offset="1" stop-color="#FFDF00"/>
</linearGradient>
<radialGradient id="paint1_radial_44_688" cx="0" cy="0" r="1" gradientUnits="userSpaceOnUse" gradientTransform="translate(814.531 -99.209) rotate(79.6257) scale(1313.6 1235.52)">
<stop stop-color="#FEBB40"/>
<stop offset="0.5576" stop-color="#EC4C76"/>
<stop offset="0.9726" stop-color="#D60B52"/>
</radialGradient>
<linearGradient id="paint2_linear_44_688" x1="1277.45" y1="-450.926" x2="249.503" y2="1208.7" gradientUnits="userSpaceOnUse">
<stop stop-color="#FFDF00"/>
<stop offset="1" stop-color="#FF9370"/>
</linearGradient>
<radialGradient id="paint3_radial_44_688" cx="0" cy="0" r="1" gradientUnits="userSpaceOnUse" gradientTransform="translate(973.512 161.069) rotate(-122.724) scale(1401.84 2365.81)">
<stop stop-color="#FEBB40"/>
<stop offset="0.5576" stop-color="#EC4C76"/>
<stop offset="0.9726" stop-color="#D60B52"/>
</radialGradient>
<linearGradient id="paint4_linear_44_688" x1="1070.01" y1="-400.149" x2="121.837" y2="1116.36" gradientUnits="userSpaceOnUse">
<stop stop-color="#FFDF00"/>
<stop offset="1" stop-color="#FF9370"/>
</linearGradient>
<radialGradient id="paint5_radial_44_688" cx="0" cy="0" r="1" gradientUnits="userSpaceOnUse" gradientTransform="translate(793.435 162.015) rotate(-122.48) scale(1284.19 2158.72)">
<stop stop-color="#FEBB40"/>
<stop offset="0.5576" stop-color="#EC4C76"/>
<stop offset="0.9726" stop-color="#D60B52"/>
</radialGradient>
<linearGradient id="paint6_linear_44_688" x1="99.2324" y1="175.573" x2="273.273" y2="52.6448" gradientUnits="userSpaceOnUse">
<stop stop-color="#EC4C76"/>
<stop offset="0.703531" stop-color="#FEBB40"/>
<stop offset="1" stop-color="white"/>
</linearGradient>
<linearGradient id="paint7_linear_44_688" x1="331.913" y1="289.344" x2="482.113" y2="183.255" gradientUnits="userSpaceOnUse">
<stop stop-color="#EC4C76"/>
<stop offset="0.5183" stop-color="#FEBB40"/>
<stop offset="1" stop-color="white"/>
</linearGradient>
<clipPath id="clip0_44_688">
<rect width="1330" height="993" fill="white" transform="translate(182 16)"/>
</clipPath>
<clipPath id="clip1_44_688">
<rect width="1276" height="975" fill="white" transform="matrix(-1 0 0 1 1276 0)"/>
</clipPath>
</defs>
</svg>
